<?xml version="1.0" encoding="UTF-8" standalone="no"?>
<svg
   xmlns:dc="http://purl.org/dc/elements/1.1/"
   xmlns:cc="http://creativecommons.org/ns#"
   xmlns:rdf="http://www.w3.org/1999/02/22-rdf-syntax-ns#"
   xmlns:svg="http://www.w3.org/2000/svg"
   xmlns="http://www.w3.org/2000/svg"
   id="svg8"
   version="1.1"
   viewBox="0 0 151 125"
   height="125mm"
   width="151mm">
  <defs
     id="defs2">
    <marker
       orient="auto"
       refY="0.0"
       refX="0.0"
       id="marker5306"
       style="overflow:visible;">
      <path
         id="path5304"
         style="fill-rule:evenodd;stroke-width:0.625;stroke-linejoin:round;stroke:#000000;stroke-opacity:1;fill:#000000;fill-opacity:1"
         d="M 8.7185878,4.0337352 L -2.2072895,0.016013256 L 8.7185884,-4.0017078 C 6.9730900,-1.6296469 6.9831476,1.6157441 8.7185878,4.0337352 z "
         transform="scale(0.6) rotate(180) translate(0,0)" />
    </marker>
    <marker
       orient="auto"
       refY="0.0"
       refX="0.0"
       id="marker5218"
       style="overflow:visible">
      <path
         id="path5216"
         style="fill-rule:evenodd;stroke-width:0.625;stroke-linejoin:round;stroke:#000000;stroke-opacity:1;fill:#000000;fill-opacity:1"
         d="M 8.7185878,4.0337352 L -2.2072895,0.016013256 L 8.7185884,-4.0017078 C 6.9730900,-1.6296469 6.9831476,1.6157441 8.7185878,4.0337352 z "
         transform="scale(0.6) translate(0,0)" />
    </marker>
    <marker
       style="overflow:visible"
       id="marker4936"
       refX="0"
       refY="0"
       orient="auto">
      <path
         transform="matrix(-1.1,0,0,-1.1,-1.1,0)"
         d="M 8.7185878,4.0337352 -2.2072895,0.01601326 8.7185884,-4.0017078 c -1.7454984,2.3720609 -1.7354408,5.6174519 -6e-7,8.035443 z"
         style="fill:#000000;fill-opacity:1;fill-rule:evenodd;stroke:#000000;stroke-width:0.625;stroke-linejoin:round;stroke-opacity:1"
         id="path4934" />
    </marker>
    <marker
       style="overflow:visible;"
       id="marker9248"
       refX="0.0"
       refY="0.0"
       orient="auto">
      <path
         transform="scale(0.6) rotate(180) translate(0,0)"
         d="M 8.7185878,4.0337352 L -2.2072895,0.016013256 L 8.7185884,-4.0017078 C 6.9730900,-1.6296469 6.9831476,1.6157441 8.7185878,4.0337352 z "
         style="fill-rule:evenodd;stroke-width:0.625;stroke-linejoin:round;stroke:#000000;stroke-opacity:1;fill:#000000;fill-opacity:1"
         id="path9246" />
    </marker>
    <marker
       style="overflow:visible"
       id="marker9078"
       refX="0.0"
       refY="0.0"
       orient="auto">
      <path
         transform="scale(0.6) translate(0,0)"
         d="M 8.7185878,4.0337352 L -2.2072895,0.016013256 L 8.7185884,-4.0017078 C 6.9730900,-1.6296469 6.9831476,1.6157441 8.7185878,4.0337352 z "
         style="fill-rule:evenodd;stroke-width:0.625;stroke-linejoin:round;stroke:#000000;stroke-opacity:1;fill:#000000;fill-opacity:1"
         id="path9076" />
    </marker>
    <marker
       orient="auto"
       refY="0.0"
       refX="0.0"
       id="marker2598"
       style="overflow:visible;">
      <path
         id="path2596"
         style="fill-rule:evenodd;stroke-width:0.625;stroke-linejoin:round;stroke:#000000;stroke-opacity:1;fill:#000000;fill-opacity:1"
         d="M 8.7185878,4.0337352 L -2.2072895,0.016013256 L 8.7185884,-4.0017078 C 6.9730900,-1.6296469 6.9831476,1.6157441 8.7185878,4.0337352 z "
         transform="scale(0.6) rotate(180) translate(0,0)" />
    </marker>
    <marker
       orient="auto"
       refY="0.0"
       refX="0.0"
       id="marker2594"
       style="overflow:visible">
      <path
         id="path2592"
         style="fill-rule:evenodd;stroke-width:0.625;stroke-linejoin:round;stroke:#000000;stroke-opacity:1;fill:#000000;fill-opacity:1"
         d="M 8.7185878,4.0337352 L -2.2072895,0.016013256 L 8.7185884,-4.0017078 C 6.9730900,-1.6296469 6.9831476,1.6157441 8.7185878,4.0337352 z "
         transform="scale(0.6) translate(0,0)" />
    </marker>
    <marker
       style="overflow:visible;"
       id="marker2244"
       refX="0.0"
       refY="0.0"
       orient="auto">
      <path
         transform="scale(0.6) rotate(180) translate(0,0)"
         d="M 8.7185878,4.0337352 L -2.2072895,0.016013256 L 8.7185884,-4.0017078 C 6.9730900,-1.6296469 6.9831476,1.6157441 8.7185878,4.0337352 z "
         style="fill-rule:evenodd;stroke-width:0.625;stroke-linejoin:round;stroke:#000000;stroke-opacity:1;fill:#000000;fill-opacity:1"
         id="path2242" />
    </marker>
    <marker
       style="overflow:visible;"
       id="Arrow2Mend"
       refX="0.0"
       refY="0.0"
       orient="auto">
      <path
         transform="scale(0.6) rotate(180) translate(0,0)"
         d="M 8.7185878,4.0337352 L -2.2072895,0.016013256 L 8.7185884,-4.0017078 C 6.9730900,-1.6296469 6.9831476,1.6157441 8.7185878,4.0337352 z "
         style="fill-rule:evenodd;stroke-width:0.625;stroke-linejoin:round;stroke:#000000;stroke-opacity:1;fill:#000000;fill-opacity:1"
         id="path891" />
    </marker>
    <marker
       style="overflow:visible"
       id="Arrow2Mstart"
       refX="0.0"
       refY="0.0"
       orient="auto">
      <path
         transform="scale(0.6) translate(0,0)"
         d="M 8.7185878,4.0337352 L -2.2072895,0.016013256 L 8.7185884,-4.0017078 C 6.9730900,-1.6296469 6.9831476,1.6157441 8.7185878,4.0337352 z "
         style="fill-rule:evenodd;stroke-width:0.625;stroke-linejoin:round;stroke:#000000;stroke-opacity:1;fill:#000000;fill-opacity:1"
         id="path888" />
    </marker>
    <marker
       orient="auto"
       refY="0"
       refX="0"
       id="marker885"
       style="overflow:visible">
      <path
         id="path883"
         style="fill:#000000;fill-opacity:1;fill-rule:evenodd;stroke:#000000;stroke-width:0.625;stroke-linejoin:round;stroke-opacity:1"
         d="M 8.7185878,4.0337352 -2.2072895,0.01601326 8.7185884,-4.0017078 c -1.7454984,2.3720609 -1.7354408,5.6174519 -6e-7,8.035443 z"
         transform="matrix(-1.1,0,0,-1.1,-1.1,0)" />
    </marker>
    <marker
       orient="auto"
       refY="0"
       refX="0"
       id="marker5079"
       style="overflow:visible">
      <path
         id="path5077"
         style="fill:#000000;fill-opacity:1;fill-rule:evenodd;stroke:#000000;stroke-width:0.625;stroke-linejoin:round;stroke-opacity:1"
         d="M 8.7185878,4.0337352 -2.2072895,0.01601326 8.7185884,-4.0017078 c -1.7454984,2.3720609 -1.7354408,5.6174519 -6e-7,8.035443 z"
         transform="matrix(-1.1,0,0,-1.1,-1.1,0)" />
    </marker>
    <marker
       style="overflow:visible"
       id="marker4819"
       refX="0"
       refY="0"
       orient="auto">
      <path
         transform="matrix(-0.8,0,0,-0.8,-10,0)"
         style="fill:#000000;fill-opacity:1;fill-rule:evenodd;stroke:#000000;stroke-width:1.00000003pt;stroke-opacity:1"
         d="M 0,0 5,-5 -12.5,0 5,5 Z"
         id="path4817" />
    </marker>
    <marker
       style="overflow:visible"
       id="Arrow1Lend"
       refX="0"
       refY="0"
       orient="auto">
      <path
         transform="matrix(-0.8,0,0,-0.8,-10,0)"
         style="fill:#000000;fill-opacity:1;fill-rule:evenodd;stroke:#000000;stroke-width:1.00000003pt;stroke-opacity:1"
         d="M 0,0 5,-5 -12.5,0 5,5 Z"
         id="path4538" />
    </marker>
  </defs>
  <metadata
     id="metadata5">
    <rdf:RDF>
      <cc:Work
         rdf:about="">
        <dc:format>image/svg+xml</dc:format>
        <dc:type
           rdf:resource="http://purl.org/dc/dcmitype/StillImage" />
        <dc:title></dc:title>
      </cc:Work>
    </rdf:RDF>
  </metadata>
  <g
     transform="translate(0,-172)"
     id="layer1">
    <path
       id="path5472"
       d="m 109.04602,238.11007 c -3.59093,2.55476 -8.19907,2.97707 -12.399912,3.46183 -6.947482,0.51437 -14.139043,0.39447 -20.929018,-1.5568 -1.541592,-0.38939 -2.928808,-1.33018 -4.351422,-1.99312 -1.343337,0.16797 -0.637823,2.00325 -0.813329,2.95562 0.05938,11.60321 -0.130712,23.21068 0.132307,34.81121 -0.02916,2.22919 2.318808,3.37185 4.061211,4.16553 6.530526,2.67125 13.72624,2.43387 20.641151,2.21616 4.398487,-0.42481 8.999352,-1.06578 12.826972,-3.42438 1.24301,-0.83038 2.36472,-2.17807 2.02425,-3.77478 0,-12.07421 0,-24.14842 0,-36.22262 -0.0787,-0.59675 -0.65143,-0.91033 -1.19221,-0.63865 z"
       style="opacity:1;fill:#8f8fff;fill-opacity:1;stroke:none;stroke-width:0.35173607;stroke-linecap:round;stroke-linejoin:round;stroke-miterlimit:4;stroke-dasharray:none;stroke-dashoffset:0;stroke-opacity:1;paint-order:stroke markers fill" />
    <path
       id="path5470"
       d="m 89.991994,189.97824 c -5.44041,0.17162 -11.0567,0.4275 -16.15976,2.49859 -1.55175,0.73541 -3.54235,1.96109 -3.20448,3.94961 0,13.32351 0,26.64701 0,39.97051 1.03787,2.31213 3.81034,2.99984 6.02914,3.7177 4.65359,1.34872 9.52156,1.58968 14.3383,1.45983 5.55402,0.0209 11.314316,-0.28755 16.440036,-2.62915 1.41375,-0.77176 3.23278,-1.96793 2.87843,-3.82348 0,-13.19471 0,-26.38942 0,-39.58413 -0.97261,-2.60729 -3.99185,-3.40137 -6.40313,-4.10991 -4.538046,-1.14325 -9.251896,-1.47317 -13.918536,-1.44957 z"
       style="opacity:1;fill:#ff0000;fill-opacity:0.50588223;stroke:none;stroke-width:0.35173607;stroke-linecap:round;stroke-linejoin:round;stroke-miterlimit:4;stroke-dasharray:none;stroke-dashoffset:0;stroke-opacity:1;paint-order:stroke markers fill" />
    <text
       id="text12911"
       y="239.81969"
       x="127.87235"
       style="font-style:normal;font-weight:normal;font-size:10.58333302px;line-height:1.25;font-family:sans-serif;letter-spacing:0px;word-spacing:0px;fill:#000000;fill-opacity:1;stroke:none;stroke-width:0.26458332"
       xml:space="preserve"><tspan
         style="stroke-width:0.26458332"
         y="249.18346"
         x="127.87235"
         id="tspan12909" /></text>
    <flowRoot
       transform="matrix(0.26458333,0,0,0.26458333,0,192)"
       style="font-style:normal;font-variant:normal;font-weight:normal;font-stretch:normal;font-size:21.33333397px;line-height:1.25;font-family:'TeX Gyre Chorus';-inkscape-font-specification:'TeX Gyre Chorus';letter-spacing:0px;word-spacing:0px;fill:#000000;fill-opacity:1;stroke:none"
       id="flowRoot5703"
       xml:space="preserve"><flowRegion
         id="flowRegion5705"><rect
           y="-109.89589"
           x="-147.85701"
           height="798.42786"
           width="1049.7848"
           id="rect5707" /></flowRegion><flowPara
         id="flowPara5709" /></flowRoot>    <g
       style="fill:none"
       transform="translate(-15.591518,-5.7839502)"
       id="g5741">
      <path
         style="fill:none;stroke:#000000;stroke-width:1.29268599;stroke-miterlimit:4;stroke-dasharray:none;stroke-opacity:1"
         d="m 86.254172,201.75 v 39.68749 39.68751 c 0,9.15455 39.687548,8.93916 39.687548,0 V 241.43749 201.75 c 0,-7.98344 -39.687548,-7.88985 -39.687548,0 z"
         id="path3721" />
      <path
         id="path881"
         d="m 109.20045,233.48511 c 0,0 3.15431,-5.33349 5.52198,-3.6034 2.86668,2.09474 5.7203,3.04672 7.51916,-1.10361 1.85508,-4.28004 5.78972,-3.27993 7.88606,-2.33306 3.13734,1.41707 19.66025,-3.31219 19.66025,-3.31219"
         style="fill:none;stroke:#000000;stroke-width:1;stroke-linecap:butt;stroke-linejoin:miter;stroke-miterlimit:4;stroke-dasharray:none;stroke-opacity:1;marker-end:url(#marker885)" />
      <text
         id="text12919"
         y="241.34108"
         x="129.98369"
         style="font-style:normal;font-weight:normal;font-size:10.58333302px;line-height:1.25;font-family:sans-serif;letter-spacing:0px;word-spacing:0px;fill:none;fill-opacity:1;stroke:none;stroke-width:0.26458332"
         xml:space="preserve"><tspan
           style="stroke-width:0.26458332;fill:none"
           y="241.34108"
           x="129.98369"
           id="tspan12917">Q̇<tspan
   id="tspan12913"
   style="font-size:64.99999762%;baseline-shift:sub;fill:none">loss </tspan></tspan></text>
      <path
         style="fill:none;stroke:#000000;stroke-width:1.23899996;stroke-linecap:butt;stroke-linejoin:miter;stroke-miterlimit:4;stroke-dasharray:none;stroke-opacity:1"
         d="m 86.254172,201.75 c 0,8.01857 39.687548,8.08731 39.687548,0"
         id="path1290" />
      <path
         style="fill:none;stroke:#000000;stroke-width:1.23899996;stroke-linecap:butt;stroke-linejoin:miter;stroke-miterlimit:4;stroke-dasharray:none;stroke-dashoffset:0;stroke-opacity:1"
         d="m 86.254172,241.43749 c 0,8.01857 39.687548,8.08731 39.687548,0"
         id="path1290-3" />
      <path
         style="fill:none;stroke:#000000;stroke-width:1.23899996;stroke-linecap:butt;stroke-linejoin:miter;stroke-miterlimit:4;stroke-dasharray:none;stroke-dashoffset:0;stroke-opacity:1"
         d="m 86.254172,241.43749 c 0,-8.01857 39.687548,-8.08731 39.687548,0"
         id="path1290-3-6" />
      <path
         id="path5713"
         d="m 86.254172,272.73389 c 0,8.01857 39.687548,8.08731 39.687548,0"
         style="fill:none;stroke:#000000;stroke-width:1.23899996;stroke-linecap:butt;stroke-linejoin:miter;stroke-miterlimit:4;stroke-dasharray:1.239, 1.23900000000000010;stroke-dashoffset:0;stroke-opacity:1" />
      <path
         id="path5715"
         d="m 86.254172,272.73389 c 0,-8.01857 39.687548,-8.08731 39.687548,0"
         style="fill:none;stroke:#000000;stroke-width:1.23899996;stroke-linecap:butt;stroke-linejoin:miter;stroke-miterlimit:4;stroke-dasharray:1.239, 1.23900000000000010;stroke-dashoffset:0;stroke-opacity:1" />
      <path
         id="path5717"
         d="m 86.254175,210.6278 c 0,8.01857 39.687545,8.08731 39.687545,0"
         style="fill:none;stroke:#000000;stroke-width:1.23899996;stroke-linecap:butt;stroke-linejoin:miter;stroke-miterlimit:4;stroke-dasharray:1.239, 1.23900000000000010;stroke-dashoffset:0;stroke-opacity:1" />
      <path
         id="path5719"
         d="m 86.254175,210.6278 c 0,-8.01857 39.687545,-8.08731 39.687545,0"
         style="fill:none;stroke:#000000;stroke-width:1.23899996;stroke-linecap:butt;stroke-linejoin:miter;stroke-miterlimit:4;stroke-dasharray:1.239, 1.23900000000000010;stroke-dashoffset:0;stroke-opacity:1" />
    </g>
    <path
       id="path5819"
       d="M 90.756642,194.90071 V 179.30919 H 54.544096"
       style="fill:none;stroke:#000000;stroke-width:1;stroke-linecap:butt;stroke-linejoin:miter;stroke-miterlimit:4;stroke-dasharray:none;stroke-opacity:1" />
    <path
       id="path5821"
       d="m 90.521542,276.38556 v 12.31925 H 54.060583"
       style="fill:none;stroke:#000000;stroke-width:1.00614822;stroke-linecap:butt;stroke-linejoin:miter;stroke-miterlimit:4;stroke-dasharray:none;stroke-opacity:1" />
    <text
       id="text6433"
       y="223.15747"
       x="74.767044"
       style="font-style:normal;font-weight:normal;font-size:10.58333302px;line-height:1.25;font-family:sans-serif;letter-spacing:0px;word-spacing:0px;fill:#000000;fill-opacity:1;stroke:none;stroke-width:0.26458332"
       xml:space="preserve"><tspan
         style="stroke-width:0.26458332"
         y="223.15747"
         x="74.767044"
         id="tspan6431">T<tspan
   id="tspan6437"
   style="font-size:64.99999762%;baseline-shift:sub">H </tspan></tspan></text>
    <text
       xml:space="preserve"
       style="font-style:normal;font-weight:normal;font-size:10.58333302px;line-height:1.25;font-family:sans-serif;letter-spacing:0px;word-spacing:0px;fill:#000000;fill-opacity:1;stroke:none;stroke-width:0.26458332"
       x="77.030327"
       y="255.96916"
       id="text6449"><tspan
         id="tspan6447"
         x="77.030327"
         y="255.96916"
         style="stroke-width:0.26458332">T<tspan
   style="font-size:64.99999762%;baseline-shift:sub"
   id="tspan6443">C</tspan></tspan></text>
    <path
       id="path862"
       d="m 66.641164,226.58669 c 0,18.86071 0,18.86071 0,18.86071"
       style="fill:none;stroke:#000000;stroke-width:0.80000001;stroke-linecap:butt;stroke-linejoin:miter;stroke-miterlimit:4;stroke-dasharray:none;stroke-opacity:1;marker-start:url(#Arrow2Mstart);marker-end:url(#Arrow2Mend)" />
    <path
       style="fill:none;stroke:#000000;stroke-width:0.80000001;stroke-linecap:butt;stroke-linejoin:miter;stroke-miterlimit:4;stroke-dasharray:none;stroke-opacity:1;marker-start:url(#marker2594);marker-end:url(#marker2598)"
       d="m 62.114595,186.72773 c -18.860709,0 -18.860709,0 -18.860709,0"
       id="path2590" />
    <path
       id="path8908"
       d="m 62.114595,281.78569 c -18.860709,0 -18.860709,0 -18.860709,0"
       style="fill:none;stroke:#000000;stroke-width:0.80000001;stroke-linecap:butt;stroke-linejoin:miter;stroke-miterlimit:4;stroke-dasharray:none;stroke-opacity:1;marker-start:url(#marker9078);marker-end:url(#marker9248)" />
    <text
       id="text21538"
       y="186.52336"
       x="10.561996"
       style="font-style:normal;font-variant:normal;font-weight:normal;font-stretch:normal;font-size:5.64444447px;line-height:1.25;font-family:'TeX Gyre Chorus';-inkscape-font-specification:'TeX Gyre Chorus';letter-spacing:0px;word-spacing:0px;fill:#000000;fill-opacity:1;stroke:none;stroke-width:0.26458332"
       xml:space="preserve"><tspan
         style="font-style:normal;font-variant:normal;font-weight:normal;font-stretch:normal;font-family:sans-serif;-inkscape-font-specification:sans-serif;stroke-width:0.26458332"
         y="186.52336"
         x="10.561996"
         id="tspan21536">Discharge</tspan></text>
    <text
       xml:space="preserve"
       style="font-style:normal;font-variant:normal;font-weight:normal;font-stretch:normal;font-size:5.64444447px;line-height:1.25;font-family:'TeX Gyre Chorus';-inkscape-font-specification:'TeX Gyre Chorus';letter-spacing:0px;word-spacing:0px;fill:#000000;fill-opacity:1;stroke:none;stroke-width:0.26458332"
       x="64.880836"
       y="186.52336"
       id="text21542"><tspan
         id="tspan21540"
         x="64.880836"
         y="186.52336"
         style="font-style:normal;font-variant:normal;font-weight:normal;font-stretch:normal;font-family:sans-serif;-inkscape-font-specification:sans-serif;stroke-width:0.26458332">Charge</tspan></text>
  </g>
</svg>
