<?xml version="1.0" encoding="UTF-8" standalone="no"?>
<!-- Created with Inkscape (http://www.inkscape.org/) -->

<svg
   xmlns:dc="http://purl.org/dc/elements/1.1/"
   xmlns:cc="http://creativecommons.org/ns#"
   xmlns:rdf="http://www.w3.org/1999/02/22-rdf-syntax-ns#"
   xmlns:svg="http://www.w3.org/2000/svg"
   xmlns="http://www.w3.org/2000/svg"
   xmlns:sodipodi="http://sodipodi.sourceforge.net/DTD/sodipodi-0.dtd"
   xmlns:inkscape="http://www.inkscape.org/namespaces/inkscape"
   width="151mm"
   height="125mm"
   viewBox="0 0 151 125"
   version="1.1"
   id="svg8"
   inkscape:version="0.92.3 (2405546, 2018-03-11)"
   sodipodi:docname="speicher_stratified.svg">
  <defs
     id="defs2">
    <marker
       inkscape:stockid="Arrow2Mend"
       orient="auto"
       refY="0.0"
       refX="0.0"
       id="marker9248"
       style="overflow:visible;"
       inkscape:isstock="true">
      <path
         id="path9246"
         style="fill-rule:evenodd;stroke-width:0.625;stroke-linejoin:round;stroke:#000000;stroke-opacity:1;fill:#000000;fill-opacity:1"
         d="M 8.7185878,4.0337352 L -2.2072895,0.016013256 L 8.7185884,-4.0017078 C 6.9730900,-1.6296469 6.9831476,1.6157441 8.7185878,4.0337352 z "
         transform="scale(0.6) rotate(180) translate(0,0)" />
    </marker>
    <marker
       inkscape:stockid="Arrow2Mstart"
       orient="auto"
       refY="0.0"
       refX="0.0"
       id="marker9078"
       style="overflow:visible"
       inkscape:isstock="true">
      <path
         id="path9076"
         style="fill-rule:evenodd;stroke-width:0.625;stroke-linejoin:round;stroke:#000000;stroke-opacity:1;fill:#000000;fill-opacity:1"
         d="M 8.7185878,4.0337352 L -2.2072895,0.016013256 L 8.7185884,-4.0017078 C 6.9730900,-1.6296469 6.9831476,1.6157441 8.7185878,4.0337352 z "
         transform="scale(0.6) translate(0,0)" />
    </marker>
    <marker
       inkscape:isstock="true"
       style="overflow:visible;"
       id="marker2598"
       refX="0.0"
       refY="0.0"
       orient="auto"
       inkscape:stockid="Arrow2Mend"
       inkscape:collect="always">
      <path
         transform="scale(0.6) rotate(180) translate(0,0)"
         d="M 8.7185878,4.0337352 L -2.2072895,0.016013256 L 8.7185884,-4.0017078 C 6.9730900,-1.6296469 6.9831476,1.6157441 8.7185878,4.0337352 z "
         style="fill-rule:evenodd;stroke-width:0.625;stroke-linejoin:round;stroke:#000000;stroke-opacity:1;fill:#000000;fill-opacity:1"
         id="path2596" />
    </marker>
    <marker
       inkscape:isstock="true"
       style="overflow:visible"
       id="marker2594"
       refX="0.0"
       refY="0.0"
       orient="auto"
       inkscape:stockid="Arrow2Mstart"
       inkscape:collect="always">
      <path
         transform="scale(0.6) translate(0,0)"
         d="M 8.7185878,4.0337352 L -2.2072895,0.016013256 L 8.7185884,-4.0017078 C 6.9730900,-1.6296469 6.9831476,1.6157441 8.7185878,4.0337352 z "
         style="fill-rule:evenodd;stroke-width:0.625;stroke-linejoin:round;stroke:#000000;stroke-opacity:1;fill:#000000;fill-opacity:1"
         id="path2592" />
    </marker>
    <marker
       inkscape:stockid="Arrow2Mend"
       orient="auto"
       refY="0.0"
       refX="0.0"
       id="marker2244"
       style="overflow:visible;"
       inkscape:isstock="true">
      <path
         id="path2242"
         style="fill-rule:evenodd;stroke-width:0.625;stroke-linejoin:round;stroke:#000000;stroke-opacity:1;fill:#000000;fill-opacity:1"
         d="M 8.7185878,4.0337352 L -2.2072895,0.016013256 L 8.7185884,-4.0017078 C 6.9730900,-1.6296469 6.9831476,1.6157441 8.7185878,4.0337352 z "
         transform="scale(0.6) rotate(180) translate(0,0)" />
    </marker>
    <marker
       inkscape:stockid="Arrow2Mend"
       orient="auto"
       refY="0.0"
       refX="0.0"
       id="Arrow2Mend"
       style="overflow:visible;"
       inkscape:isstock="true"
       inkscape:collect="always">
      <path
         id="path891"
         style="fill-rule:evenodd;stroke-width:0.625;stroke-linejoin:round;stroke:#000000;stroke-opacity:1;fill:#000000;fill-opacity:1"
         d="M 8.7185878,4.0337352 L -2.2072895,0.016013256 L 8.7185884,-4.0017078 C 6.9730900,-1.6296469 6.9831476,1.6157441 8.7185878,4.0337352 z "
         transform="scale(0.6) rotate(180) translate(0,0)" />
    </marker>
    <marker
       inkscape:stockid="Arrow2Mstart"
       orient="auto"
       refY="0.0"
       refX="0.0"
       id="Arrow2Mstart"
       style="overflow:visible"
       inkscape:isstock="true"
       inkscape:collect="always">
      <path
         id="path888"
         style="fill-rule:evenodd;stroke-width:0.625;stroke-linejoin:round;stroke:#000000;stroke-opacity:1;fill:#000000;fill-opacity:1"
         d="M 8.7185878,4.0337352 L -2.2072895,0.016013256 L 8.7185884,-4.0017078 C 6.9730900,-1.6296469 6.9831476,1.6157441 8.7185878,4.0337352 z "
         transform="scale(0.6) translate(0,0)" />
    </marker>
    <marker
       inkscape:isstock="true"
       style="overflow:visible"
       id="marker885"
       refX="0"
       refY="0"
       orient="auto"
       inkscape:stockid="Arrow2Lend">
      <path
         transform="matrix(-1.1,0,0,-1.1,-1.1,0)"
         d="M 8.7185878,4.0337352 -2.2072895,0.01601326 8.7185884,-4.0017078 c -1.7454984,2.3720609 -1.7354408,5.6174519 -6e-7,8.035443 z"
         style="fill:#000000;fill-opacity:1;fill-rule:evenodd;stroke:#000000;stroke-width:0.625;stroke-linejoin:round;stroke-opacity:1"
         id="path883"
         inkscape:connector-curvature="0" />
    </marker>
    <marker
       inkscape:isstock="true"
       style="overflow:visible"
       id="marker5079"
       refX="0"
       refY="0"
       orient="auto"
       inkscape:stockid="Arrow2Lend">
      <path
         transform="matrix(-1.1,0,0,-1.1,-1.1,0)"
         d="M 8.7185878,4.0337352 -2.2072895,0.01601326 8.7185884,-4.0017078 c -1.7454984,2.3720609 -1.7354408,5.6174519 -6e-7,8.035443 z"
         style="fill:#000000;fill-opacity:1;fill-rule:evenodd;stroke:#000000;stroke-width:0.625;stroke-linejoin:round;stroke-opacity:1"
         id="path5077"
         inkscape:connector-curvature="0" />
    </marker>
    <marker
       inkscape:stockid="Arrow1Lend"
       orient="auto"
       refY="0"
       refX="0"
       id="marker4819"
       style="overflow:visible"
       inkscape:isstock="true">
      <path
         id="path4817"
         d="M 0,0 5,-5 -12.5,0 5,5 Z"
         style="fill:#000000;fill-opacity:1;fill-rule:evenodd;stroke:#000000;stroke-width:1.00000003pt;stroke-opacity:1"
         transform="matrix(-0.8,0,0,-0.8,-10,0)"
         inkscape:connector-curvature="0" />
    </marker>
    <marker
       inkscape:stockid="Arrow1Lend"
       orient="auto"
       refY="0"
       refX="0"
       id="Arrow1Lend"
       style="overflow:visible"
       inkscape:isstock="true">
      <path
         id="path4538"
         d="M 0,0 5,-5 -12.5,0 5,5 Z"
         style="fill:#000000;fill-opacity:1;fill-rule:evenodd;stroke:#000000;stroke-width:1.00000003pt;stroke-opacity:1"
         transform="matrix(-0.8,0,0,-0.8,-10,0)"
         inkscape:connector-curvature="0" />
    </marker>
  </defs>
  <sodipodi:namedview
     id="base"
     pagecolor="#ffffff"
     bordercolor="#666666"
     borderopacity="1.0"
     inkscape:pageopacity="0.0"
     inkscape:pageshadow="2"
     inkscape:zoom="1.0521212"
     inkscape:cx="432.61224"
     inkscape:cy="220.00556"
     inkscape:document-units="mm"
     inkscape:current-layer="layer1"
     showgrid="true"
     inkscape:window-width="1920"
     inkscape:window-height="1031"
     inkscape:window-x="0"
     inkscape:window-y="25"
     inkscape:window-maximized="1"
     inkscape:snap-global="false"
     inkscape:snap-bbox="false"
     inkscape:bbox-nodes="false"
     inkscape:snap-intersection-paths="true"
     inkscape:snap-smooth-nodes="true"
     inkscape:object-nodes="true"
     inkscape:snap-nodes="true"
     inkscape:object-paths="true"
     inkscape:snap-grids="false"
     inkscape:snap-to-guides="true">
    <inkscape:grid
       type="xygrid"
       id="grid3715" />
  </sodipodi:namedview>
  <metadata
     id="metadata5">
    <rdf:RDF>
      <cc:Work
         rdf:about="">
        <dc:format>image/svg+xml</dc:format>
        <dc:type
           rdf:resource="http://purl.org/dc/dcmitype/StillImage" />
        <dc:title></dc:title>
      </cc:Work>
    </rdf:RDF>
  </metadata>
  <g
     inkscape:label="Ebene 1"
     inkscape:groupmode="layer"
     id="layer1"
     transform="translate(0,-172)">
    <text
       xml:space="preserve"
       style="font-style:normal;font-weight:normal;font-size:10.58333302px;line-height:1.25;font-family:sans-serif;letter-spacing:0px;word-spacing:0px;fill:#000000;fill-opacity:1;stroke:none;stroke-width:0.26458332"
       x="127.87235"
       y="239.81969"
       id="text12911"><tspan
         sodipodi:role="line"
         id="tspan12909"
         x="127.87235"
         y="249.18346"
         style="stroke-width:0.26458332" /></text>
    <flowRoot
       xml:space="preserve"
       id="flowRoot5703"
       style="font-style:normal;font-variant:normal;font-weight:normal;font-stretch:normal;font-size:21.33333397px;line-height:1.25;font-family:'TeX Gyre Chorus';-inkscape-font-specification:'TeX Gyre Chorus';letter-spacing:0px;word-spacing:0px;fill:#000000;fill-opacity:1;stroke:none"
       transform="matrix(0.26458333,0,0,0.26458333,0,192)"><flowRegion
         id="flowRegion5705"><rect
           id="rect5707"
           width="1049.7848"
           height="798.42786"
           x="-147.85701"
           y="-109.89589" /></flowRegion><flowPara
         id="flowPara5709" /></flowRoot>    <g
       id="g5741"
       transform="translate(-15.591518,-5.7839502)">
      <path
         sodipodi:nodetypes="ccccccc"
         inkscape:connector-curvature="0"
         id="path3721"
         d="m 86.254172,201.75 v 39.68749 39.68751 c 0,9.15455 39.687548,8.93916 39.687548,0 V 241.43749 201.75 c 0,-7.98344 -39.687548,-7.88985 -39.687548,0 z"
         style="fill:#ffffff;stroke:#000000;stroke-width:1.29268599;stroke-miterlimit:4;stroke-dasharray:none;stroke-opacity:1" />
      <path
         sodipodi:nodetypes="csssc"
         style="fill:none;stroke:#000000;stroke-width:1;stroke-linecap:butt;stroke-linejoin:miter;stroke-miterlimit:4;stroke-dasharray:none;stroke-opacity:1;marker-end:url(#marker885)"
         d="m 109.20045,233.48511 c 0,0 3.15431,-5.33349 5.52198,-3.6034 2.86668,2.09474 5.7203,3.04672 7.51916,-1.10361 1.85508,-4.28004 5.78972,-3.27993 7.88606,-2.33306 3.13734,1.41707 19.66025,-3.31219 19.66025,-3.31219"
         id="path881"
         inkscape:connector-curvature="0" />
      <text
         xml:space="preserve"
         style="font-style:normal;font-weight:normal;font-size:10.58333302px;line-height:1.25;font-family:sans-serif;letter-spacing:0px;word-spacing:0px;fill:#000000;fill-opacity:1;stroke:none;stroke-width:0.26458332"
         x="129.98369"
         y="241.34108"
         id="text12919"><tspan
           sodipodi:role="line"
           id="tspan12917"
           x="129.98369"
           y="241.34108"
           style="stroke-width:0.26458332">Q̇<tspan
   style="font-size:64.99999762%;baseline-shift:sub"
   id="tspan12913">loss </tspan></tspan></text>
      <path
         sodipodi:nodetypes="cc"
         inkscape:connector-curvature="0"
         id="path1290"
         d="m 86.254172,201.75 c 0,8.01857 39.687548,8.08731 39.687548,0"
         style="fill:none;stroke:#000000;stroke-width:1.23899996;stroke-linecap:butt;stroke-linejoin:miter;stroke-miterlimit:4;stroke-dasharray:none;stroke-opacity:1" />
      <path
         sodipodi:nodetypes="cc"
         inkscape:connector-curvature="0"
         id="path1290-3"
         d="m 86.254172,241.43749 c 0,8.01857 39.687548,8.08731 39.687548,0"
         style="fill:none;stroke:#000000;stroke-width:1.23899996;stroke-linecap:butt;stroke-linejoin:miter;stroke-miterlimit:4;stroke-dasharray:none;stroke-dashoffset:0;stroke-opacity:1" />
      <path
         sodipodi:nodetypes="cc"
         inkscape:connector-curvature="0"
         id="path1290-3-6"
         d="m 86.254172,241.43749 c 0,-8.01857 39.687548,-8.08731 39.687548,0"
         style="fill:none;stroke:#000000;stroke-width:1.23899996;stroke-linecap:butt;stroke-linejoin:miter;stroke-miterlimit:4;stroke-dasharray:none;stroke-dashoffset:0;stroke-opacity:1" />
      <path
         style="fill:none;stroke:#000000;stroke-width:1.23899996;stroke-linecap:butt;stroke-linejoin:miter;stroke-miterlimit:4;stroke-dasharray:1.239, 1.239;stroke-dashoffset:0;stroke-opacity:1"
         d="m 86.254172,272.73389 c 0,8.01857 39.687548,8.08731 39.687548,0"
         id="path5713"
         inkscape:connector-curvature="0"
         sodipodi:nodetypes="cc" />
      <path
         style="fill:none;stroke:#000000;stroke-width:1.23899996;stroke-linecap:butt;stroke-linejoin:miter;stroke-miterlimit:4;stroke-dasharray:1.239, 1.239;stroke-dashoffset:0;stroke-opacity:1"
         d="m 86.254172,272.73389 c 0,-8.01857 39.687548,-8.08731 39.687548,0"
         id="path5715"
         inkscape:connector-curvature="0"
         sodipodi:nodetypes="cc" />
      <path
         style="fill:none;stroke:#000000;stroke-width:1.23899996;stroke-linecap:butt;stroke-linejoin:miter;stroke-miterlimit:4;stroke-dasharray:1.239, 1.239;stroke-dashoffset:0;stroke-opacity:1"
         d="m 86.254175,210.6278 c 0,8.01857 39.687545,8.08731 39.687545,0"
         id="path5717"
         inkscape:connector-curvature="0"
         sodipodi:nodetypes="cc" />
      <path
         style="fill:none;stroke:#000000;stroke-width:1.23899996;stroke-linecap:butt;stroke-linejoin:miter;stroke-miterlimit:4;stroke-dasharray:1.239, 1.239;stroke-dashoffset:0;stroke-opacity:1"
         d="m 86.254175,210.6278 c 0,-8.01857 39.687545,-8.08731 39.687545,0"
         id="path5719"
         inkscape:connector-curvature="0"
         sodipodi:nodetypes="cc" />
    </g>
    <path
       style="opacity:1;fill:#ff0000;fill-opacity:0.50609753;stroke:#ff0000;stroke-width:0;stroke-linecap:round;stroke-miterlimit:4;stroke-dasharray:none;stroke-dashoffset:0;stroke-opacity:1"
       d="m 85.266118,201.13891 c -2.436241,-0.20702 -5.422394,-0.62141 -5.347792,-0.74212 0.04351,-0.0704 -0.173324,-1.28012 -0.243891,-1.36064 -0.0164,-0.0187 -0.316828,0.0275 -0.667596,0.10273 l -0.637768,0.13678 0.07152,0.44071 0.07152,0.44071 -0.48944,-0.0859 c -0.269192,-0.0473 -0.561483,-0.17712 -0.649536,-0.28857 -0.102526,-0.12977 -0.309131,-0.18979 -0.574567,-0.16692 -0.844372,0.0728 -3.559323,-1.10979 -4.506296,-1.96278 -2.904939,-2.61664 1.318282,-5.3256 10.019004,-6.42662 9.928508,-1.2564 21.787514,-0.0427 25.760644,2.63637 0.4927,0.33223 1.02805,0.80179 1.18966,1.04347 1.07543,1.60822 -0.21537,3.17845 -3.6259,4.41079 -0.91744,0.3315 -1.5396,0.36669 -2.17466,0.12299 -0.13979,-0.0536 -0.21436,-0.0203 -0.21436,0.0958 0,0.32637 -0.30923,0.58656 -0.80271,0.67542 l -0.48837,0.0879 0.0857,-0.57152 0.0857,-0.57151 -0.60324,-0.12944 c -0.33179,-0.0712 -0.63907,-0.0905 -0.68286,-0.0429 -0.0438,0.0476 -0.11798,0.3553 -0.16487,0.68379 -0.0774,0.54205 -0.062,0.59726 0.16649,0.59726 0.13847,0 0.28129,0.0478 0.31739,0.10619 0.0671,0.10852 -0.83665,0.26336 -3.508583,0.60114 -1.79229,0.22657 -10.329071,0.3416 -12.385196,0.16688 z m -2.926487,-1.17874 c 0.01558,-0.0135 -0.0065,-0.31923 -0.04918,-0.67932 l -0.07754,-0.6547 -0.642377,0.0819 c -0.353306,0.045 -0.659347,0.0959 -0.68009,0.11304 -0.02074,0.0171 0.0013,0.3249 0.04888,0.68392 l 0.08659,0.65277 0.642679,-0.0865 c 0.353472,-0.0476 0.655439,-0.0976 0.671036,-0.1111 z m 17.18773,-0.22986 c 0.214199,-1.05142 0.184118,-1.10021 -0.678365,-1.10021 -0.529437,0 -0.63186,0.13266 -0.63186,0.81837 0,0.45196 0.110432,0.52375 0.846336,0.55017 0.326295,0.0117 0.417597,-0.0411 0.463889,-0.26833 z m -14.764194,-0.60197 c 0,-0.33502 -0.0606,-0.64658 -0.134665,-0.69236 -0.07407,-0.0458 -0.385268,-0.0456 -0.69156,2.9e-4 -0.548008,0.0822 -0.556895,0.0913 -0.556895,0.56847 0,0.7691 0.05442,0.82501 0.755721,0.77631 l 0.627399,-0.0436 z m 12.322328,0.33478 c 0,-0.16425 0.03536,-0.47545 0.07859,-0.69156 l 0.07859,-0.39293 h -0.707279 c -0.607732,0 -0.707276,0.0332 -0.707276,0.23576 0,0.12967 -0.0343,0.40727 -0.07623,0.6169 -0.08512,0.42562 0.02228,0.48989 0.86209,0.51587 0.416605,0.0129 0.471519,-0.0202 0.471519,-0.28404 z m -10.090478,0.0936 c 0.293881,-0.0788 0.36313,-0.4259 0.203658,-1.02096 -0.0655,-0.24441 -0.159364,-0.28291 -0.689841,-0.28291 h -0.614026 v 0.69156 0.69156 l 0.408649,-0.002 c 0.224755,-9.5e-4 0.535958,-0.0358 0.69156,-0.0775 z m 7.622204,-0.20366 c 0.0417,-0.1556 0.07659,-0.46134 0.07753,-0.67943 0.0016,-0.38741 -0.01294,-0.39751 -0.637513,-0.44008 -0.351576,-0.024 -0.662779,-0.02 -0.691558,0.009 -0.02878,0.0288 -0.05233,0.32246 -0.05233,0.65254 v 0.60014 l 0.471517,0.0493 c 0.259334,0.0271 0.535646,0.0588 0.614026,0.0705 0.07838,0.0116 0.176625,-0.10617 0.218324,-0.26177 z m -4.950272,-0.53439 v -0.69156 h -0.691558 c -0.760931,0 -0.761415,7.4e-4 -0.610854,0.9116 0.07762,0.46964 0.08038,0.47152 0.690174,0.47152 h 0.612238 z m 2.514761,0 v -0.69156 h -0.69156 -0.691557 v 0.69156 0.69156 h 0.691557 0.69156 z"
       id="path5803"
       inkscape:connector-curvature="0" />
    <path
       style="opacity:1;fill:#ff0000;fill-opacity:0.50609753;stroke:#ff0000;stroke-width:0;stroke-linecap:round;stroke-miterlimit:4;stroke-dasharray:none;stroke-dashoffset:0;stroke-opacity:1"
       d="m 71.309194,220.24596 v -12.71021 l 0.534387,0.39376 0.534387,0.39377 0.283146,-0.35145 c 0.414841,-0.51492 0.470334,-0.7866 0.200393,-0.9811 -0.127635,-0.092 -0.343969,-0.2512 -0.480742,-0.35386 -0.229828,-0.1725 -0.279475,-0.15182 -0.654892,0.27269 l -0.406209,0.45934 -0.0052,-0.69785 c -0.0029,-0.38381 0.04995,-0.75303 0.117404,-0.82048 0.07969,-0.0797 0.07375,-0.28194 -0.01699,-0.57755 -0.103346,-0.33673 -0.102113,-0.5625 0.0048,-0.86904 0.09749,-0.27967 0.103005,-0.4555 0.01699,-0.54152 -0.07006,-0.0701 -0.127389,-0.43837 -0.127389,-0.81847 v -0.69107 l 0.425614,0.41252 0.425614,0.41252 0.452996,-0.29355 c 0.249147,-0.16146 0.453697,-0.35115 0.454554,-0.42154 7.94e-4,-0.0704 -0.142933,-0.34062 -0.319532,-0.60051 -0.339468,-0.49957 -0.356351,-0.49959 -1.030597,-9.8e-4 l -0.408649,0.3022 v -1.76591 -1.7659 l 0.571445,0.43619 c 0.314293,0.23991 1.004456,0.64168 1.533696,0.89283 l 0.962256,0.45663 -0.411232,0.17291 c -0.441944,0.18582 -0.449791,0.32136 -0.06268,1.08254 0.171096,0.33643 0.176723,0.3377 0.644194,0.14551 0.656535,-0.26992 0.710925,-0.34709 0.556623,-0.78972 -0.07415,-0.21271 -0.117914,-0.38674 -0.09725,-0.38674 0.06634,0 0.883925,0.26872 1.143863,0.37595 0.351475,0.145 3.031669,0.70488 4.4637,0.93244 3.855601,0.61268 10.237772,0.87161 14.459876,0.58666 3.561321,-0.24036 7.48409,-0.84059 9.50951,-1.45506 0.78649,-0.2386 0.84261,-0.23541 0.7696,0.0438 -0.0462,0.17673 0.048,0.27121 0.39398,0.39499 0.2501,0.0895 0.52589,0.18921 0.61286,0.22161 0.23225,0.0865 0.73935,-1.09883 0.52639,-1.23045 -0.10407,-0.0643 0.16197,-0.25928 0.7729,-0.56639 0.51238,-0.25757 1.17208,-0.63331 1.46599,-0.83499 l 0.53439,-0.36668 v 2.22799 c 0,1.81317 -0.0355,2.26716 -0.19038,2.43835 -0.17,0.18785 -0.17,0.25911 0,0.66599 0.24058,0.57578 0.24058,0.98031 0,1.55609 -0.17,0.40688 -0.17,0.47814 0,0.66599 0.16487,0.18218 0.19009,1.0765 0.18823,6.67597 l -0.002,6.46561 -0.72084,0.30931 c -1.03073,0.44229 -2.01231,1.46307 -2.6729,2.77965 -0.72351,1.44198 -1.21437,2.09518 -1.85785,2.47229 -1.05278,0.61697 -2.56159,0.25179 -4.559862,-1.10365 -1.553665,-1.05386 -2.695125,-0.8908 -4.422997,0.63184 -0.626751,0.55231 -2.232936,2.6031 -2.232936,2.85103 0,0.0796 0.190445,0.25716 0.423215,0.3945 l 0.423214,0.2497 0.6614,-0.92481 c 1.271064,-1.77729 2.822845,-2.95849 3.622863,-2.7577 0.181663,0.0456 0.592301,0.27523 0.912529,0.5103 0.320228,0.23507 1.086024,0.66944 1.701774,0.96526 1.06355,0.51097 1.17613,0.53783 2.25118,0.53697 0.91562,-7.9e-4 1.22824,-0.0525 1.63769,-0.27101 0.78471,-0.41884 1.62165,-1.41152 2.2575,-2.67757 0.6416,-1.2775 1.37631,-2.16247 2.10315,-2.53328 l 0.47717,-0.24343 v 6.10085 c 0,3.35547 -0.0208,6.10085 -0.0462,6.10085 -0.0254,0 -0.41677,-0.24848 -0.86966,-0.55218 -3.24478,-2.17586 -11.280281,-3.51841 -19.768029,-3.3028 -8.04214,0.2043 -14.150073,1.47641 -17.06894,3.55498 l -0.597258,0.42532 z m 18.357755,-9.3564 v -0.69155 h -0.614413 -0.614413 l -0.0848,0.56545 c -0.04664,0.311 -0.04972,0.6222 -0.0069,0.69156 0.04287,0.0694 0.357513,0.1261 0.699209,0.1261 h 0.621271 v -0.69156 z m 2.514761,0 v -0.69155 h -0.69156 -0.691557 v 0.69155 0.69156 h 0.691557 0.69156 z m -4.983035,0.28292 c 0.0417,-0.15561 0.07659,-0.46681 0.07754,-0.69156 l 0.0016,-0.40865 h -0.69156 -0.69156 v 0.69156 0.69156 h 0.614027 c 0.530476,0 0.62434,-0.0385 0.68984,-0.28291 z m 7.496079,-0.12574 c -0.0033,-0.78239 -0.115345,-0.97447 -0.568483,-0.97447 -0.716024,0 -0.812917,0.0915 -0.812917,0.76788 v 0.61524 h 0.691557 0.69156 l -0.0019,-0.40865 z m -9.957043,-0.42306 0.03742,-0.6431 -0.603178,-0.068 c -0.701688,-0.0791 -0.787244,0.002 -0.789977,0.74896 -0.0019,0.49973 0.01878,0.5291 0.406723,0.57926 0.86356,0.11166 0.908309,0.0826 0.949015,-0.61714 z m 12.30444,0.60968 c 0.09315,-0.0593 0.121115,-0.30667 0.07795,-0.68964 l -0.06731,-0.59719 h -0.604917 c -0.332706,0 -0.636268,0.0507 -0.674587,0.11272 -0.03832,0.062 -0.03396,0.3732 0.0097,0.69156 l 0.07934,0.57884 0.517295,-0.002 c 0.284512,-0.001 0.582665,-0.0435 0.662559,-0.0944 z m -14.751468,-0.80791 c 0.04252,-0.359 0.06352,-0.66651 0.04667,-0.68336 -0.01685,-0.0169 -0.326665,-0.0699 -0.68848,-0.11791 l -0.657847,-0.0873 -0.02246,0.39341 c -0.06022,1.05521 -0.143042,0.97053 1.105149,1.13 0.07844,0.01 0.17354,-0.26825 0.216963,-0.63488 z m 17.022691,0.57807 c 0.319593,-0.0639 0.36594,-0.12266 0.322432,-0.40865 -0.142905,-0.93938 -0.122794,-0.91627 -0.761498,-0.87511 -0.657899,0.0424 -0.742352,0.17338 -0.600241,0.93089 0.08579,0.45731 0.245676,0.5116 1.039307,0.35287 z m -19.524149,-0.77408 c 0.04596,-0.25934 0.110551,-0.56392 0.143536,-0.67685 0.04544,-0.15558 -0.05522,-0.22576 -0.415353,-0.28962 -0.261427,-0.0463 -0.567725,-0.11126 -0.680657,-0.14425 -0.155577,-0.0454 -0.225758,0.0552 -0.289615,0.41536 -0.04635,0.26142 -0.111324,0.56789 -0.144373,0.68104 -0.05617,0.19229 0.153697,0.27314 1.222584,0.47097 0.04417,0.008 0.117914,-0.19732 0.163878,-0.45665 z m 21.944435,0.39062 c 0.40157,-0.0803 0.40389,-0.0851 0.31971,-0.66013 -0.0466,-0.31857 -0.12256,-0.61816 -0.16874,-0.66576 -0.0462,-0.0476 -0.35863,-0.0276 -0.69434,0.0444 -0.59271,0.12716 -0.60817,0.14195 -0.53438,0.5109 0.0418,0.20897 0.076,0.48604 0.076,0.61571 0,0.25602 0.27973,0.29926 1.00176,0.15486 z m 2.84079,-0.70203 c 0.0563,-0.0563 -0.23729,-1.06046 -0.34016,-1.16333 -0.0423,-0.0423 -0.34256,-0.01 -0.66729,0.0718 -0.54124,0.13629 -0.5839,0.17463 -0.51217,0.46042 0.043,0.17146 0.10955,0.46825 0.1478,0.65954 l 0.0696,0.3478 0.62893,-0.16591 c 0.34592,-0.0913 0.64891,-0.18589 0.67333,-0.21031 z m -27.173582,-0.29478 c 0.04633,-0.24695 0.112379,-0.52235 0.146778,-0.61198 0.04146,-0.10805 -0.128127,-0.21099 -0.503137,-0.30542 -0.770858,-0.19411 -0.789766,-0.18972 -0.875655,0.20334 -0.04156,0.19018 -0.110148,0.46673 -0.152423,0.61456 -0.06119,0.21395 -0.0041,0.29527 0.279884,0.39872 0.196209,0.0715 0.50605,0.13441 0.688533,0.13987 0.283633,0.008 0.344011,-0.0552 0.41602,-0.43909 z m 29.029712,-0.25436 c 0.32352,-0.11024 0.58822,-0.25395 0.58822,-0.31936 0,-0.18422 -0.49719,-1.11481 -0.59561,-1.11481 -0.0482,0 -0.3253,0.0908 -0.6159,0.20178 l -0.52837,0.20179 0.17526,0.49672 c 0.17322,0.49098 0.2909,0.7343 0.35513,0.7343 0.0182,0 0.29775,-0.0902 0.62127,-0.20042 z m -31.232831,-1.06313 c 0.0054,-0.1133 -0.187931,-0.27084 -0.462193,-0.37659 -0.259334,-0.1 -0.510915,-0.19993 -0.559067,-0.22209 -0.11643,-0.0536 -0.631129,0.96358 -0.574125,1.13459 0.02453,0.0736 0.29659,0.23359 0.604602,0.35564 l 0.560025,0.22189 0.210717,-0.45933 c 0.115893,-0.25263 0.214913,-0.54698 0.220041,-0.65411 z m 33.538901,-0.062 c 0.29999,-0.17581 0.54544,-0.35666 0.54544,-0.4019 0,-0.11183 -0.64718,-1.03879 -0.72526,-1.03879 -0.053,0 -0.87133,0.4686 -1.02232,0.58538 -0.0571,0.0441 0.5249,1.17495 0.60467,1.17495 0.0286,0 0.29748,-0.14384 0.59747,-0.31964 z m 0.19965,-5.83286 c 0.19018,-0.26891 0.34579,-0.5148 0.34579,-0.54643 0,-0.08 -0.9779,-0.71961 -1.10014,-0.71961 -0.11895,0 -0.73761,1.10179 -0.6548,1.16615 0.17068,0.13265 0.94682,0.58986 1.00051,0.58938 0.0346,-3.2e-4 0.21847,-0.22059 0.40864,-0.48949 z"
       id="path5805"
       inkscape:connector-curvature="0" />
    <path
       style="opacity:1;fill:#ff0000;fill-opacity:0.50609753;stroke:#ff0000;stroke-width:0;stroke-linecap:round;stroke-miterlimit:4;stroke-dasharray:none;stroke-dashoffset:0;stroke-opacity:1"
       d="m 85.958985,240.86579 c -5.243237,-0.35352 -10.204405,-1.43094 -12.499752,-2.71458 -4.897295,-2.73872 -0.925701,-6.09597 8.663434,-7.32333 7.989724,-1.02264 17.387001,-0.50176 22.884323,1.26846 2.26102,0.72808 3.96284,1.77777 4.46893,2.75643 1.02801,1.98796 -1.94259,4.00878 -7.54951,5.13572 -4.39791,0.88395 -10.718404,1.23121 -15.967425,0.8773 z"
       id="path5807"
       inkscape:connector-curvature="0" />
    <path
       style="opacity:1;fill:#0000ff;fill-opacity:0.43902438;stroke:none;stroke-width:0;stroke-linecap:round;stroke-miterlimit:4;stroke-dasharray:none;stroke-dashoffset:0;stroke-opacity:1"
       d="m 86.34052,281.30529 c -7.888724,-0.56125 -13.583137,-2.47681 -14.70106,-4.94533 -0.23495,-0.5188 -0.256474,-0.81927 -0.259006,-3.61576 l -0.0028,-3.04993 0.526232,0.38119 0.526233,0.3812 0.366307,-0.58852 c 0.30117,-0.48388 0.334148,-0.60653 0.185447,-0.68975 -0.09948,-0.0557 -0.317228,-0.21274 -0.483894,-0.34904 l -0.303027,-0.24782 -0.396484,0.38142 -0.396486,0.38143 0.0021,-2.43287 0.0021,-2.43286 0.357976,0.42879 0.357974,0.4288 0.508021,-0.35206 c 0.27941,-0.19364 0.508021,-0.37387 0.508021,-0.40053 0,-0.10568 -0.667197,-1.04897 -0.74195,-1.04897 -0.04391,0 -0.291012,0.14349 -0.549111,0.31887 l -0.469273,0.31888 V 251.29092 238.4094 l 0.793576,0.53215 c 6.715312,4.50311 29.535554,4.56805 36.550624,0.10403 l 0.8173,-0.52009 0.032,13.40566 c 0.0274,11.46893 0.006,13.43443 -0.1475,13.6048 -0.15375,0.17058 -0.15448,0.24422 -0.005,0.51349 0.23657,0.42624 0.2275,1.31028 -0.0183,1.78567 -0.18513,0.358 -0.18513,0.39936 0,0.50296 0.17801,0.0996 0.20171,0.54846 0.20171,3.81995 0,4.24969 0.005,4.2265 -1.03157,5.22211 -1.99768,1.9195 -7.16497,3.3724 -13.799215,3.87996 -1.524963,0.11667 -7.012647,0.14609 -8.430752,0.0452 z m 5.548193,-7.71157 c 0.199083,0 0.235757,-0.0978 0.235757,-0.62869 v -0.62869 h -0.62869 -0.628689 v 0.70728 0.70727 l 0.39293,-0.0786 c 0.216114,-0.0432 0.499022,-0.0786 0.628692,-0.0786 z m -4.668025,-0.69156 V 272.2106 H 86.60545 c -0.677365,0 -0.767882,0.0965 -0.767882,0.81836 0,0.46039 0.107564,0.5253 0.911601,0.55017 l 0.471519,0.0146 z m 2.514761,0.0629 v -0.62869 h -0.69156 -0.69156 v 0.62869 0.62869 h 0.69156 0.69156 z m 4.903782,-0.0629 v -0.69156 h -0.69156 -0.691557 v 0.49267 c 0,0.79979 0.07819,0.89045 0.767879,0.89045 h 0.615238 z m -9.933304,0.2672 c 0,-0.16425 0.03414,-0.46934 0.07587,-0.67798 0.07498,-0.37488 0.06823,-0.38039 -0.573871,-0.4687 -0.357359,-0.0491 -0.666745,-0.0694 -0.687528,-0.045 -0.02077,0.0244 -0.07527,0.33824 -0.121086,0.69744 l -0.0833,0.6531 0.600652,0.0472 c 0.330361,0.026 0.643091,0.0574 0.69496,0.0699 0.05187,0.0125 0.0943,-0.11172 0.0943,-0.27596 z m 12.055133,0.22004 c 0.340021,-0.068 0.392703,-0.1315 0.391216,-0.47152 -0.0036,-0.81882 -0.07599,-0.90013 -0.759042,-0.85232 l -0.622358,0.0436 v 0.67942 c 0,0.74742 0.06378,0.78612 0.990184,0.60084 z m 2.882538,-0.36104 c 0.02074,-0.0187 -2.52e-4,-0.32001 -0.04661,-0.66962 l -0.08432,-0.63565 -0.644948,0.0728 c -0.354725,0.04 -0.661922,0.0865 -0.682665,0.10333 -0.02074,0.0168 0.0013,0.32433 0.04888,0.68335 l 0.08659,0.65277 0.642679,-0.0865 c 0.353472,-0.0476 0.659648,-0.10177 0.680392,-0.12046 z m -17.405946,-0.2205 c 0.227436,-0.84868 0.04199,-1.09413 -0.829955,-1.09849 -0.265703,-10e-4 -0.358148,0.0694 -0.408646,0.31263 -0.0359,0.17288 -0.09359,0.45164 -0.128212,0.61945 -0.06996,0.33909 0.06654,0.41022 0.834144,0.43473 0.373819,0.0119 0.470633,-0.0368 0.532669,-0.26832 z m 19.834128,-0.16607 c 0.0423,-0.026 0.0197,-0.3364 -0.0502,-0.68979 l -0.12704,-0.64252 -0.45278,0.08 c -0.87647,0.15496 -0.86799,0.14677 -0.75519,0.72971 0.0566,0.2923 0.10531,0.58031 0.10832,0.64002 0.005,0.0977 1.08925,-0.002 1.27686,-0.11747 z m -22.231872,-0.53681 c 0.05899,-0.30014 0.07903,-0.57393 0.04453,-0.60842 -0.131619,-0.13162 -1.132718,-0.29745 -1.223613,-0.20269 -0.05246,0.0547 -0.134101,0.36388 -0.181427,0.6871 -0.08407,0.57415 -0.0778,0.58896 0.272566,0.64385 0.834032,0.13069 0.973156,0.0642 1.087942,-0.51984 z m 24.261112,0.099 c 0.52021,-0.14447 0.53624,-0.18827 0.32588,-0.8904 -0.15756,-0.52587 -0.26306,-0.56327 -1.00651,-0.35678 -0.45803,0.12722 -0.45991,0.13053 -0.33892,0.59656 0.23362,0.89991 0.19975,0.87829 1.01955,0.65062 z m -26.696323,-0.57785 c 0.08094,-0.32146 0.101806,-0.62484 0.04636,-0.67419 -0.05545,-0.0494 -0.334635,-0.14642 -0.620422,-0.21571 l -0.519612,-0.12599 -0.149482,0.49892 c -0.08221,0.2744 -0.177308,0.57144 -0.21132,0.66007 -0.03947,0.10285 0.111612,0.20713 0.417618,0.28826 0.830797,0.22026 0.877687,0.20075 1.036855,-0.43136 z m 29.085343,-0.17745 c 0.25934,-0.0928 0.47152,-0.24036 0.47152,-0.32785 0,-0.28239 -0.41912,-1.04778 -0.57375,-1.04778 -0.16179,0 -1.06084,0.35541 -1.06084,0.41937 0,0.26924 0.44194,1.21772 0.54889,1.17801 0.0785,-0.0291 0.35485,-0.12893 0.61418,-0.22175 z m -31.428922,-0.57802 c 0.119351,-0.32203 0.202285,-0.59247 0.184296,-0.60098 -0.559801,-0.26496 -1.009343,-0.44811 -1.099865,-0.44811 -0.107456,0 -0.673317,1.13262 -0.600398,1.20175 0.09623,0.0912 0.940435,0.41378 1.106045,0.42259 0.118907,0.006 0.27617,-0.21437 0.409922,-0.57525 z m 34.162992,-0.8596 c 0.069,-0.0831 -0.0445,-0.31822 -0.30139,-0.6242 l -0.41208,-0.49083 -0.49163,0.296 c -0.27039,0.1628 -0.5066,0.30586 -0.5249,0.31791 -0.0183,0.012 0.11423,0.28582 0.29451,0.60838 l 0.32779,0.58646 0.49851,-0.28017 c 0.27418,-0.1541 0.54831,-0.3402 0.60919,-0.41355 z m -0.27489,-5.51853 0.39569,-0.55099 -0.51128,-0.33834 c -0.2812,-0.18609 -0.58857,-0.30869 -0.68304,-0.27244 -0.0945,0.0363 -0.28612,0.29006 -0.42588,0.56402 l -0.25411,0.49811 0.53134,0.32041 c 0.29224,0.17623 0.5359,0.32262 0.54147,0.32532 0.006,0.003 0.18818,-0.24304 0.40581,-0.54609 z m -34.193264,-0.65152 0.491378,-0.19661 -0.198487,-0.62069 c -0.10917,-0.34138 -0.239581,-0.62069 -0.289801,-0.62069 -0.05022,0 -0.34889,0.11041 -0.663702,0.24536 l -0.572389,0.24535 0.198279,0.47764 c 0.326702,0.78701 0.286797,0.7689 1.034722,0.46964 z m 32.009174,-0.49197 c 0.11823,-0.30956 0.18243,-0.61547 0.14268,-0.67979 -0.0398,-0.0643 -0.32377,-0.20264 -0.63116,-0.30738 l -0.55887,-0.19042 -0.20822,0.62688 c -0.11452,0.34479 -0.18831,0.64238 -0.16397,0.66132 0.0698,0.0543 1.04158,0.43855 1.12737,0.44575 0.0425,0.004 0.17395,-0.2468 0.29217,-0.55636 z m -29.675285,-0.26108 c 0.502396,-0.0942 0.504706,-0.10093 0.306745,-0.88709 -0.13793,-0.54778 -0.154213,-0.5624 -0.534384,-0.47975 -0.453517,0.0986 -0.957943,0.27871 -0.957943,0.34205 0,0.024 0.0914,0.31183 0.203113,0.63969 0.13303,0.39041 0.260109,0.57423 0.368287,0.53272 0.09084,-0.0349 0.367225,-0.10129 0.614182,-0.14762 z m 27.330875,-0.49813 c 0.0835,-0.3122 0.15182,-0.61668 0.15182,-0.67663 0,-0.13329 -1.10172,-0.42368 -1.25289,-0.33025 -0.093,0.0575 -0.28544,0.87675 -0.27345,1.16404 0.003,0.0749 0.70404,0.31662 1.15448,0.39812 0.0375,0.007 0.13654,-0.24309 0.22004,-0.55528 z m -24.582394,-0.17935 c 0.139743,-0.13035 -0.04162,-1.14908 -0.216519,-1.21619 -0.07961,-0.0306 -0.368662,-0.008 -0.642332,0.0509 -0.484751,0.10373 -0.496789,0.11922 -0.466862,0.60071 0.04944,0.79534 0.09226,0.84134 0.692549,0.74377 0.293762,-0.0478 0.578684,-0.1284 0.633164,-0.17922 z m 22.099184,0.024 c 0.003,-0.0519 0.0518,-0.33345 0.10832,-0.62574 0.11298,-0.58384 0.12289,-0.57437 -0.76588,-0.73172 -0.45868,-0.0812 -0.46432,-0.0771 -0.54526,0.40194 -0.14156,0.8378 -0.13835,0.84965 0.25431,0.93657 0.54205,0.11999 0.94218,0.12799 0.94851,0.0189 z m -20.034407,-0.28291 h 0.445796 l -0.06067,-0.63145 c -0.03337,-0.3473 -0.09353,-0.66431 -0.133686,-0.70447 -0.04016,-0.0401 -0.361582,-0.0333 -0.714282,0.0152 -0.512273,0.0704 -0.629923,0.12996 -0.584851,0.29582 0.03103,0.11419 0.0931,0.42453 0.137938,0.68964 0.06125,0.36221 0.12905,0.46379 0.27274,0.40865 0.105172,-0.0404 0.391829,-0.0734 0.637019,-0.0734 z m 17.692862,-0.64337 c 0.04694,-0.35385 0.06837,-0.65712 0.04763,-0.67394 -0.02074,-0.0168 -0.33477,-0.0641 -0.697839,-0.10513 -0.628645,-0.071 -0.660125,-0.0606 -0.660125,0.21814 0,0.16098 -0.03449,0.46517 -0.07665,0.67595 -0.06961,0.34804 -0.04362,0.38819 0.282911,0.43696 1.003636,0.14993 1.011479,0.14601 1.10407,-0.55198 z m -14.846509,0.29745 c 0.0321,-0.052 0.02809,-0.36315 -0.0089,-0.69156 l -0.06731,-0.59711 -0.518033,0.002 c -0.754033,0.003 -0.847871,0.10145 -0.753237,0.79186 l 0.08078,0.58934 h 0.604181 c 0.332298,0 0.630444,-0.0425 0.662548,-0.0944 z m 12.325286,-0.18846 c 0.0417,-0.15561 0.07659,-0.46681 0.07753,-0.69156 0.0016,-0.37722 -0.02972,-0.40878 -0.406932,-0.41037 -0.224756,-0.001 -0.535959,-0.0358 -0.69156,-0.0775 -0.268513,-0.072 -0.282908,-0.0403 -0.282908,0.62205 0,0.6648 0.01638,0.70036 0.345778,0.75026 0.768482,0.11641 0.881293,0.0937 0.958088,-0.19285 z m -10.089814,0.0314 c 0.202536,0 0.23576,-0.0995 0.23576,-0.70622 0,-0.67102 -0.0141,-0.70245 -0.282911,-0.63041 -0.155602,0.0417 -0.466802,0.0766 -0.69156,0.0775 -0.391218,0.002 -0.408649,0.0227 -0.408649,0.49439 0,0.76891 0.100957,0.92684 0.536765,0.83968 0.206161,-0.0412 0.480928,-0.075 0.610595,-0.075 z m 2.750521,-0.69156 v -0.69156 h -0.69156 -0.69156 v 0.69156 0.69156 h 0.69156 0.69156 z m 2.389021,0 v -0.69156 h -0.62869 -0.628689 v 0.69156 0.69156 h 0.628689 0.62869 z m 2.514761,0.0775 c 0,-0.66047 -0.120414,-0.76335 -0.898146,-0.76737 -0.381254,-0.002 -0.484971,0.1881 -0.484971,0.88873 v 0.49267 h 0.691557 0.69156 z"
       id="path5811"
       inkscape:connector-curvature="0" />
    <path
       style="fill:none;stroke:#000000;stroke-width:1;stroke-linecap:butt;stroke-linejoin:miter;stroke-miterlimit:4;stroke-dasharray:none;stroke-opacity:1"
       d="M 90.756642,194.90071 V 179.30919 H 54.544096"
       id="path5819"
       inkscape:connector-curvature="0"
       sodipodi:nodetypes="ccc" />
    <path
       style="fill:none;stroke:#000000;stroke-width:1.00614822;stroke-linecap:butt;stroke-linejoin:miter;stroke-miterlimit:4;stroke-dasharray:none;stroke-opacity:1"
       d="m 90.521542,276.38556 v 12.31925 H 54.060583"
       id="path5821"
       inkscape:connector-curvature="0"
       sodipodi:nodetypes="ccc" />
    <text
       xml:space="preserve"
       style="font-style:normal;font-weight:normal;font-size:10.58333302px;line-height:1.25;font-family:sans-serif;letter-spacing:0px;word-spacing:0px;fill:#000000;fill-opacity:1;stroke:none;stroke-width:0.26458332"
       x="74.767044"
       y="223.15747"
       id="text6433"><tspan
         sodipodi:role="line"
         id="tspan6431"
         x="74.767044"
         y="223.15747"
         style="stroke-width:0.26458332">T<tspan
   style="font-size:64.99999762%;baseline-shift:sub"
   id="tspan6437">H </tspan></tspan></text>
    <text
       id="text6449"
       y="255.96916"
       x="77.030327"
       style="font-style:normal;font-weight:normal;font-size:10.58333302px;line-height:1.25;font-family:sans-serif;letter-spacing:0px;word-spacing:0px;fill:#000000;fill-opacity:1;stroke:none;stroke-width:0.26458332"
       xml:space="preserve"><tspan
         style="stroke-width:0.26458332"
         y="255.96916"
         x="77.030327"
         id="tspan6447"
         sodipodi:role="line">T<tspan
   id="tspan6443"
   style="font-size:64.99999762%;baseline-shift:sub">L</tspan></tspan></text>
    <path
       style="fill:none;stroke:#000000;stroke-width:0.80000001;stroke-linecap:butt;stroke-linejoin:miter;stroke-miterlimit:4;stroke-dasharray:none;stroke-opacity:1;marker-start:url(#Arrow2Mstart);marker-end:url(#Arrow2Mend)"
       d="m 66.641164,226.58669 c 0,18.86071 0,18.86071 0,18.86071"
       id="path862"
       inkscape:connector-curvature="0" />
    <path
       inkscape:connector-curvature="0"
       id="path2590"
       d="m 62.114595,186.72773 c -18.860709,0 -18.860709,0 -18.860709,0"
       style="fill:none;stroke:#000000;stroke-width:0.80000001;stroke-linecap:butt;stroke-linejoin:miter;stroke-miterlimit:4;stroke-dasharray:none;stroke-opacity:1;marker-start:url(#marker2594);marker-end:url(#marker2598)" />
    <path
       style="fill:none;stroke:#000000;stroke-width:0.80000001;stroke-linecap:butt;stroke-linejoin:miter;stroke-miterlimit:4;stroke-dasharray:none;stroke-opacity:1;marker-start:url(#marker9078);marker-end:url(#marker9248)"
       d="m 62.114595,281.78569 c -18.860709,0 -18.860709,0 -18.860709,0"
       id="path8908"
       inkscape:connector-curvature="0" />
    <text
       xml:space="preserve"
       style="font-style:normal;font-variant:normal;font-weight:normal;font-stretch:normal;font-size:5.64444447px;line-height:1.25;font-family:'TeX Gyre Chorus';-inkscape-font-specification:'TeX Gyre Chorus';letter-spacing:0px;word-spacing:0px;fill:#000000;fill-opacity:1;stroke:none;stroke-width:0.26458332"
       x="10.561996"
       y="186.52336"
       id="text21538"><tspan
         sodipodi:role="line"
         id="tspan21536"
         x="10.561996"
         y="186.52336"
         style="font-style:normal;font-variant:normal;font-weight:normal;font-stretch:normal;font-family:sans-serif;-inkscape-font-specification:sans-serif;stroke-width:0.26458332">Discharge</tspan></text>
    <text
       id="text21542"
       y="186.52336"
       x="64.880836"
       style="font-style:normal;font-variant:normal;font-weight:normal;font-stretch:normal;font-size:5.64444447px;line-height:1.25;font-family:'TeX Gyre Chorus';-inkscape-font-specification:'TeX Gyre Chorus';letter-spacing:0px;word-spacing:0px;fill:#000000;fill-opacity:1;stroke:none;stroke-width:0.26458332"
       xml:space="preserve"><tspan
         style="font-style:normal;font-variant:normal;font-weight:normal;font-stretch:normal;font-family:sans-serif;-inkscape-font-specification:sans-serif;stroke-width:0.26458332"
         y="186.52336"
         x="64.880836"
         id="tspan21540"
         sodipodi:role="line">Charge</tspan></text>
  </g>
</svg>
